<?xml version="1.0" encoding="UTF-8" standalone="no"?>
<!-- Created with Inkscape (http://www.inkscape.org/) -->

<svg
   xmlns:dc="http://purl.org/dc/elements/1.1/"
   xmlns:cc="http://creativecommons.org/ns#"
   xmlns:rdf="http://www.w3.org/1999/02/22-rdf-syntax-ns#"
   xmlns:svg="http://www.w3.org/2000/svg"
   xmlns="http://www.w3.org/2000/svg"
   xmlns:sodipodi="http://sodipodi.sourceforge.net/DTD/sodipodi-0.dtd"
   xmlns:inkscape="http://www.inkscape.org/namespaces/inkscape"
   version="1.1"
   id="svg109380"
   xml:space="preserve"
   width="666.66669"
   height="666.66669"
   viewBox="0 0 666.66669 666.66669"
   sodipodi:docname="smartphone-hand-publicdomainvectors.org.svg"
   inkscape:version="0.92.4 (5da689c313, 2019-01-14)"><metadata
     id="metadata109386"><rdf:RDF><cc:Work
         rdf:about=""><dc:format>image/svg+xml</dc:format><dc:type
           rdf:resource="http://purl.org/dc/dcmitype/StillImage" /><dc:title></dc:title></cc:Work></rdf:RDF></metadata><defs
     id="defs109384"><clipPath
       clipPathUnits="userSpaceOnUse"
       id="clipPath109396"><path
         d="M 0,500 H 500 V 0 H 0 Z"
         id="path109394"
         inkscape:connector-curvature="0" /></clipPath><clipPath
       clipPathUnits="userSpaceOnUse"
       id="clipPath109416"><path
         d="M 230.333,387.125 H 298.12 V 337.392 H 230.333 Z"
         id="path109414"
         inkscape:connector-curvature="0" /></clipPath><clipPath
       clipPathUnits="userSpaceOnUse"
       id="clipPath109430"><path
         d="m 244.277,202.994 h 43.108 v -43.099 h -43.108 z"
         id="path109428"
         inkscape:connector-curvature="0" /></clipPath><clipPath
       clipPathUnits="userSpaceOnUse"
       id="clipPath109444"><path
         d="m 289.607,243.97 h 40.928 v -40.91 h -40.928 z"
         id="path109442"
         inkscape:connector-curvature="0" /></clipPath><clipPath
       clipPathUnits="userSpaceOnUse"
       id="clipPath109458"><path
         d="m 321.739,292.936 h 49.347 v -49.34 h -49.347 z"
         id="path109456"
         inkscape:connector-curvature="0" /></clipPath><clipPath
       clipPathUnits="userSpaceOnUse"
       id="clipPath109472"><path
         d="m 138.119,430.455 h 276.1 V 166.854 h -276.1 z"
         id="path109470"
         inkscape:connector-curvature="0" /></clipPath><clipPath
       clipPathUnits="userSpaceOnUse"
       id="clipPath109500"><path
         d="m 216.216,401.242 h 81.904 v -63.85 h -81.904 z"
         id="path109498"
         inkscape:connector-curvature="0" /></clipPath><clipPath
       clipPathUnits="userSpaceOnUse"
       id="clipPath109514"><path
         d="m 202.492,361.197 h 114.09 v -47.478 h -114.09 z"
         id="path109512"
         inkscape:connector-curvature="0" /></clipPath><clipPath
       clipPathUnits="userSpaceOnUse"
       id="clipPath109534"><path
         d="m 323.77,292.936 h 46.287 V 278.591 H 323.77 Z"
         id="path109532"
         inkscape:connector-curvature="0" /></clipPath><clipPath
       clipPathUnits="userSpaceOnUse"
       id="clipPath109548"><path
         d="m 150.978,310.451 h 251.346 v -31.86 H 150.978 Z"
         id="path109546"
         inkscape:connector-curvature="0" /></clipPath><clipPath
       clipPathUnits="userSpaceOnUse"
       id="clipPath109562"><path
         d="M 192.28,335.416 H 416.67 V 319.894 H 192.28 Z"
         id="path109560"
         inkscape:connector-curvature="0" /></clipPath><clipPath
       clipPathUnits="userSpaceOnUse"
       id="clipPath109576"><path
         d="m 182.788,176.053 h 48.067 v -39.849 h -48.067 z"
         id="path109574"
         inkscape:connector-curvature="0" /></clipPath><clipPath
       clipPathUnits="userSpaceOnUse"
       id="clipPath109590"><path
         d="m 198.302,162.966 h 56.063 v -44.148 h -56.063 z"
         id="path109588"
         inkscape:connector-curvature="0" /></clipPath><clipPath
       clipPathUnits="userSpaceOnUse"
       id="clipPath109604"><path
         d="m 244.277,202.994 h 55.59 v -55.583 h -55.59 z"
         id="path109602"
         inkscape:connector-curvature="0" /></clipPath><clipPath
       clipPathUnits="userSpaceOnUse"
       id="clipPath109618"><path
         d="m 289.607,243.97 h 53.41 v -53.409 h -53.41 z"
         id="path109616"
         inkscape:connector-curvature="0" /></clipPath><clipPath
       clipPathUnits="userSpaceOnUse"
       id="clipPath109632"><path
         d="M 228.805,306.007 H 359.518 V 166.854 H 228.805 Z"
         id="path109630"
         inkscape:connector-curvature="0" /></clipPath><clipPath
       clipPathUnits="userSpaceOnUse"
       id="clipPath109646"><path
         d="m 321.739,292.936 h 61.829 v -61.825 h -61.829 z"
         id="path109644"
         inkscape:connector-curvature="0" /></clipPath></defs><sodipodi:namedview
     pagecolor="#ffffff"
     bordercolor="#666666"
     borderopacity="1"
     objecttolerance="10"
     gridtolerance="10"
     guidetolerance="10"
     inkscape:pageopacity="0"
     inkscape:pageshadow="2"
     inkscape:window-width="797"
     inkscape:window-height="480"
     id="namedview109382"
     showgrid="false"
     inkscape:zoom="0.35399999"
     inkscape:cx="333.33334"
     inkscape:cy="333.33334"
     inkscape:window-x="0"
     inkscape:window-y="0"
     inkscape:window-maximized="0"
     inkscape:current-layer="g109388" /><g
     id="g109388"
     inkscape:groupmode="layer"
     inkscape:label="smartphone-hand-publicdomainvectors.org"
     transform="matrix(1.3333333,0,0,-1.3333333,0,666.66667)"><g
       id="g109390"><g
         id="g109392"
         clip-path="url(#clipPath109396)"><path
           d="m 229.515,357.129 -13.299,13.3 30.814,30.813 51.09,-51.09 c -8.514,-8.511 -19.655,-12.76 -30.814,-12.76 -11.16,0 -22.302,4.249 -30.814,12.76 z"
           style="fill:#105a96;fill-opacity:1;fill-rule:nonzero;stroke:none"
           id="path109398"
           inkscape:connector-curvature="0" /><path
           d="m 233.306,156.97 21.059,-21.076 -6.224,-6.225 c -0.457,-0.457 -0.916,-0.898 -1.389,-1.307 -0.392,-0.376 -0.816,-0.735 -1.225,-1.063 -0.179,-0.146 -0.36,-0.293 -0.54,-0.442 -0.865,-0.701 -1.748,-1.337 -2.663,-1.942 -0.506,-0.327 -1.029,-0.654 -1.568,-0.964 -0.376,-0.245 -0.784,-0.459 -1.176,-0.671 -0.31,-0.178 -0.621,-0.342 -0.932,-0.489 -2.533,-1.291 -5.179,-2.255 -7.908,-2.909 -0.473,-0.114 -0.964,-0.228 -1.437,-0.327 -0.098,-0.016 -0.179,-0.033 -0.261,-0.049 -0.181,-0.032 -0.344,-0.066 -0.523,-0.097 -1.013,-0.196 -2.026,-0.328 -3.039,-0.425 -1.111,-0.116 -2.222,-0.164 -3.333,-0.164 -1.699,-0.016 -3.416,0.082 -5.13,0.326 -0.621,0.083 -1.242,0.18 -1.847,0.294 -0.62,0.115 -1.225,0.246 -1.829,0.393 -0.409,0.099 -0.801,0.195 -1.21,0.311 l -7.825,7.825 c -8.006,8.007 -8.006,20.995 0,29.001 4.003,4.003 9.247,5.996 14.492,5.996 5.26,0 10.505,-1.993 14.508,-5.996"
           style="fill:#105a96;fill-opacity:1;fill-rule:nonzero;stroke:none"
           id="path109400"
           inkscape:connector-curvature="0" /><path
           d="m 287.385,193.878 12.482,-12.482 -33.983,-33.985 -14.572,14.574 c -9.38,9.395 -9.38,24.605 0,33.983 4.688,4.69 10.832,7.026 16.991,7.026 6.142,0 12.286,-2.336 16.992,-7.026 l 1.274,-1.275 z"
           style="fill:#105a96;fill-opacity:1;fill-rule:nonzero;stroke:none"
           id="path109402"
           inkscape:connector-curvature="0" /><path
           d="m 330.616,236.945 12.401,-12.4 -33.967,-33.984 -12.401,12.401 c -0.033,0.032 -0.066,0.066 -0.083,0.098 -0.277,0.277 -0.538,0.555 -0.798,0.833 -8.497,9.444 -8.204,23.985 0.881,33.052 4.689,4.689 10.833,7.025 16.975,7.025 5.769,0 11.503,-2.042 16.062,-6.159 0.293,-0.245 0.571,-0.506 0.849,-0.785 z"
           style="fill:#105a96;fill-opacity:1;fill-rule:nonzero;stroke:none"
           id="path109404"
           inkscape:connector-curvature="0" /><path
           d="m 371.086,277.562 12.482,-12.483 -33.984,-33.968 -12.481,12.485 -0.819,0.815 -7.513,7.517 c -7.207,7.205 -8.874,17.856 -5.001,26.663 1.161,2.647 2.828,5.13 5.001,7.304 4.688,4.705 10.846,7.041 16.991,7.041 6.16,0 12.302,-2.336 16.992,-7.041 l 7.303,-7.304 h 0.407 l -0.196,-0.213 z"
           style="fill:#105a96;fill-opacity:1;fill-rule:nonzero;stroke:none"
           id="path109406"
           inkscape:connector-curvature="0" /><path
           d="m 378.013,284.505 12.482,-12.483 54.946,54.946 c 14.476,14.493 14.476,37.97 0,52.446 l -83.896,83.897 c -14.476,14.475 -37.955,14.475 -52.446,0 l -52.838,-52.838 13.3,-13.299 0.818,-0.817 46.203,-46.205 -9.231,-9.23 c -2.01,-2.01 -4.134,-3.84 -6.373,-5.506 -9.688,-7.189 -21.386,-11.078 -33.672,-11.078 -12.286,0 -23.985,3.889 -33.674,11.078 -2.238,1.666 -4.361,3.496 -6.371,5.506 l -6.16,6.159 -0.817,0.817 -13.299,13.299 -4.493,-4.492 -90.693,-90.694 c -14.476,-14.476 -14.476,-37.953 0,-52.446 l 71.168,-71.169 6.194,-6.192 c -2.043,9.69 0.701,20.194 8.217,27.693 5.719,5.735 13.332,8.888 21.42,8.888 4.215,0 8.3,-0.866 12.057,-2.516 0.065,-0.049 0.115,-0.081 0.18,-0.13 0,0.015 -0.016,0.033 -0.016,0.049 0.669,-0.293 1.323,-0.605 1.96,-0.949 1.308,-0.702 2.565,-1.503 3.774,-2.385 -0.866,2.271 -1.486,4.624 -1.846,6.993 -1.584,10.277 1.568,21.157 9.475,29.049 6.389,6.389 14.885,9.918 23.921,9.918 4.509,0 8.888,-0.882 12.94,-2.566 -3.431,11.535 -0.622,24.54 8.479,33.625 6.388,6.387 14.868,9.917 23.902,9.917 0.671,0 1.308,-0.065 1.962,-0.098 -3.906,7.745 -4.641,16.697 -2.224,24.899 1.553,5.212 4.363,10.13 8.48,14.247 6.388,6.388 14.884,9.901 23.92,9.901 4.819,0 9.475,-0.996 13.756,-2.908 3.742,-1.651 7.189,-4.019 10.163,-6.993 l 7.516,-7.516 z"
           style="fill:#105a96;fill-opacity:1;fill-rule:nonzero;stroke:none"
           id="path109408"
           inkscape:connector-curvature="0" /><g
           id="g109410"><g
             id="g109412" /><g
             id="g109422"><g
               clip-path="url(#clipPath109416)"
               id="g109420"><path
                 d="m 236.492,350.152 -6.159,6.16 30.813,30.813 36.974,-36.973 c -8.514,-8.511 -19.655,-12.76 -30.814,-12.76 -11.16,0 -22.302,4.249 -30.814,12.76"
                 style="fill:#cccccc;fill-opacity:1;fill-rule:nonzero;stroke:none"
                 id="path109418"
                 inkscape:connector-curvature="0" /></g></g></g><g
           id="g109424"><g
             id="g109426" /><g
             id="g109436"><g
               clip-path="url(#clipPath109430)"
               id="g109434"><path
                 d="m 286.569,194.693 0.816,-0.815 -33.984,-33.983 -2.089,2.09 c -9.38,9.395 -9.38,24.605 0,33.983 4.688,4.69 10.832,7.026 16.991,7.026 6.142,0 12.286,-2.336 16.992,-7.026 z"
                 style="fill:#cccccc;fill-opacity:1;fill-rule:nonzero;stroke:none"
                 id="path109432"
                 inkscape:connector-curvature="0" /></g></g></g><g
           id="g109438"><g
             id="g109440" /><g
             id="g109450"><g
               clip-path="url(#clipPath109444)"
               id="g109448"><path
                 d="m 329.686,237.811 c 0.293,-0.245 0.571,-0.506 0.849,-0.785 L 296.566,203.06 c -0.277,0.277 -0.538,0.555 -0.798,0.833 -8.497,9.444 -8.204,23.985 0.881,33.052 4.689,4.689 10.833,7.025 16.975,7.025 5.769,0 11.503,-2.042 16.062,-6.159"
                 style="fill:#cccccc;fill-opacity:1;fill-rule:nonzero;stroke:none"
                 id="path109446"
                 inkscape:connector-curvature="0" /></g></g></g><g
           id="g109452"><g
             id="g109454" /><g
             id="g109464"><g
               clip-path="url(#clipPath109458)"
               id="g109462"><path
                 d="m 370.268,278.378 0.818,-0.816 -33.983,-33.966 -0.819,0.815 -7.513,7.517 c -7.207,7.205 -8.874,17.856 -5.001,26.663 1.161,2.647 2.828,5.13 5.001,7.304 4.688,4.705 10.846,7.041 16.991,7.041 6.16,0 12.302,-2.336 16.992,-7.041 l 7.303,-7.304 h 0.407 z"
                 style="fill:#cccccc;fill-opacity:1;fill-rule:nonzero;stroke:none"
                 id="path109460"
                 inkscape:connector-curvature="0" /></g></g></g><g
           id="g109466"><g
             id="g109468" /><g
             id="g109478"><g
               clip-path="url(#clipPath109472)"
               id="g109476"><path
                 d="m 378.013,284.505 36.206,36.206 -0.818,0.816 -13.886,13.889 -95.038,95.039 -34.098,-34.098 46.203,-46.205 -9.231,-9.23 c -2.01,-2.01 -4.134,-3.84 -6.373,-5.506 -9.688,-7.189 -21.386,-11.078 -33.672,-11.078 -12.286,0 -23.985,3.889 -33.674,11.078 -2.238,1.666 -4.361,3.496 -6.371,5.506 l -6.16,6.159 -4.492,-4.493 -7.173,-7.172 -15.521,-15.522 -4.085,-4.085 -5.358,-5.358 -31.86,-31.86 -11.224,-11.225 -3.269,-3.267 92.36,-92.36 2.5,-2.5 c 1.308,-0.702 2.565,-1.503 3.774,-2.385 -0.866,2.271 -1.486,4.624 -1.846,6.993 -1.584,10.277 1.568,21.157 9.475,29.049 6.389,6.389 14.885,9.918 23.921,9.918 4.509,0 8.888,-0.882 12.94,-2.566 -3.431,11.535 -0.622,24.54 8.479,33.625 6.388,6.387 14.868,9.917 23.902,9.917 0.671,0 1.308,-0.065 1.962,-0.098 -3.906,7.745 -4.641,16.697 -2.224,24.899 1.553,5.212 4.363,10.13 8.48,14.247 6.388,6.388 14.884,9.901 23.92,9.901 4.819,0 9.475,-0.996 13.756,-2.908 3.742,-1.651 7.189,-4.019 10.163,-6.993 l 7.516,-7.516 z"
                 style="fill:#cccccc;fill-opacity:1;fill-rule:nonzero;stroke:none"
                 id="path109474"
                 inkscape:connector-curvature="0" /></g></g></g><path
           d="m 229.515,357.129 30.815,30.813 37.79,-37.79 c -8.514,-8.511 -19.655,-12.76 -30.814,-12.76 -11.16,0 -22.302,4.249 -30.814,12.76 z"
           style="fill:#007fd4;fill-opacity:1;fill-rule:nonzero;stroke:none"
           id="path109480"
           inkscape:connector-curvature="0" /><path
           d="m 285.295,195.968 1.274,-1.275 -33.984,-33.983 -1.273,1.275 c -9.38,9.395 -9.38,24.605 0,33.983 4.688,4.69 10.832,7.026 16.991,7.026 6.142,0 12.286,-2.336 16.992,-7.026"
           style="fill:#007fd4;fill-opacity:1;fill-rule:nonzero;stroke:none"
           id="path109482"
           inkscape:connector-curvature="0" /><path
           d="m 313.624,243.97 c 5.769,0 11.503,-2.042 16.062,-6.159 l -33.918,-33.918 c -8.497,9.444 -8.204,23.985 0.881,33.052 4.689,4.689 10.833,7.025 16.975,7.025"
           style="fill:#007fd4;fill-opacity:1;fill-rule:nonzero;stroke:none"
           id="path109484"
           inkscape:connector-curvature="0" /><path
           d="m 370.057,278.591 h 0.407 l -0.196,-0.213 -33.984,-33.967 -7.513,7.517 c -7.207,7.205 -8.874,17.856 -5.001,26.663 1.161,2.647 2.828,5.13 5.001,7.304 4.688,4.705 10.846,7.041 16.991,7.041 6.16,0 12.302,-2.336 16.992,-7.041 z"
           style="fill:#007fd4;fill-opacity:1;fill-rule:nonzero;stroke:none"
           id="path109486"
           inkscape:connector-curvature="0" /><path
           d="m 416.67,324.795 -39.473,-39.473 -7.516,7.516 c -2.974,2.974 -6.421,5.343 -10.163,6.993 -4.281,1.912 -8.937,2.908 -13.756,2.908 -9.036,0 -17.532,-3.513 -23.92,-9.901 -4.117,-4.117 -6.927,-9.035 -8.48,-14.247 -2.417,-8.202 -1.682,-17.154 2.224,-24.899 -0.654,0.033 -1.291,0.098 -1.962,0.098 -9.034,0 -17.514,-3.53 -23.902,-9.917 -9.101,-9.085 -11.91,-22.09 -8.479,-33.625 -4.052,1.684 -8.431,2.566 -12.94,2.566 -9.036,0 -17.532,-3.529 -23.921,-9.918 -7.907,-7.892 -11.059,-18.772 -9.475,-29.049 l -94.337,94.337 42.267,42.267 9.443,9.443 15.522,15.522 7.99,7.989 4.492,4.493 6.977,-6.976 c 2.01,-2.01 4.134,-3.84 6.372,-5.506 9.688,-7.189 21.387,-11.078 33.673,-11.078 12.286,0 23.984,3.889 33.672,11.078 2.239,1.666 4.363,3.496 6.373,5.506 l 9.231,9.23 -47.021,47.022 37.365,37.365 99.125,-99.123 z"
           style="fill:#007fd4;fill-opacity:1;fill-rule:nonzero;stroke:none"
           id="path109488"
           inkscape:connector-curvature="0" /><path
           d="m 186.249,183.319 c -5.743,-5.742 -15.053,-5.742 -20.795,0 -5.743,5.743 -5.743,15.054 0,20.796 5.742,5.741 15.052,5.741 20.795,0 5.742,-5.742 5.742,-15.053 0,-20.796"
           style="fill:#0071bc;fill-opacity:1;fill-rule:nonzero;stroke:none"
           id="path109490"
           inkscape:connector-curvature="0" /><path
           d="m 395.933,371.054 -42.745,42.745 c -2.552,2.552 -2.552,6.69 0,9.242 2.551,2.552 6.689,2.552 9.241,0 l 42.747,-42.746 c 2.552,-2.551 2.552,-6.69 0,-9.241 -2.552,-2.553 -6.691,-2.553 -9.243,0"
           style="fill:#0071bc;fill-opacity:1;fill-rule:nonzero;stroke:none"
           id="path109492"
           inkscape:connector-curvature="0" /><g
           id="g109494"><g
             id="g109496" /><g
             id="g109506"><g
               clip-path="url(#clipPath109500)"
               id="g109504"><path
                 d="m 229.515,357.129 -13.299,13.3 30.814,30.813 51.09,-51.09 c -8.514,-8.511 -19.655,-12.76 -30.814,-12.76 -11.16,0 -22.302,4.249 -30.814,12.76 z"
                 style="fill:#cccccc;fill-opacity:1;fill-rule:nonzero;stroke:none"
                 id="path109502"
                 inkscape:connector-curvature="0" /></g></g></g><g
           id="g109508"><g
             id="g109510" /><g
             id="g109520"><g
               clip-path="url(#clipPath109514)"
               id="g109518"><path
                 d="m 316.582,350.152 -9.722,-14.736 -1.192,-1.798 c -5.229,-5.228 -10.522,-10.113 -16.321,-13.724 -6.062,-3.774 -12.681,-6.175 -20.409,-6.175 -9.099,0 -17.873,2.139 -25.748,6.175 -5.211,2.647 -10.031,6.159 -14.295,10.407 l -13.103,13.104 -13.3,13.3 4.493,4.492 13.299,-13.299 6.977,-6.976 c 2.01,-2.01 4.134,-3.84 6.372,-5.506 9.688,-7.189 21.387,-11.078 33.673,-11.078 12.286,0 23.984,3.889 33.672,11.078 2.239,1.666 4.363,3.496 6.373,5.506 z"
                 style="fill:#cccccc;fill-opacity:1;fill-rule:nonzero;stroke:none"
                 id="path109516"
                 inkscape:connector-curvature="0" /></g></g></g><path
           d="m 298.12,350.152 c -8.514,-8.511 -19.655,-12.76 -30.814,-12.76 -11.16,0 -22.302,4.249 -30.814,12.76 l -6.977,6.977 -13.299,13.3 30.814,30.813 z"
           style="fill:#ffffff;fill-opacity:1;fill-rule:nonzero;stroke:none"
           id="path109522"
           inkscape:connector-curvature="0" /><path
           d="m 298.12,350.152 c -8.514,-8.511 -19.655,-12.76 -30.814,-12.76 -11.16,0 -22.302,4.249 -30.814,12.76 l -6.977,6.977 -13.299,13.3 -11.551,11.55 -19.131,19.132 30.812,30.813 z"
           style="fill:#ff6868;fill-opacity:1;fill-rule:nonzero;stroke:none"
           id="path109524"
           inkscape:connector-curvature="0" /><path
           d="M 235.396,412.711 199.012,376.31 c -0.017,0 -0.017,0 -0.033,-0.017 -3.316,-1.83 -11.158,-5.522 -21.599,-6.519 -19.262,-1.846 -37.725,5.948 -54.912,23.136 -2.549,2.548 -6.682,2.548 -9.232,0 -2.565,-2.565 -2.565,-6.699 0,-9.248 21.126,-21.125 41.859,-27.089 58.541,-27.089 2.76,0 5.408,0.163 7.94,0.458 L 75.953,253.268 55.742,273.477 c -44.014,44.032 -44.014,115.413 0,159.444 22.024,22.008 50.878,33.004 79.731,33.004 28.853,0 57.706,-10.996 79.715,-33.004 z"
           style="fill:#ff6868;fill-opacity:1;fill-rule:nonzero;stroke:none"
           id="path109526"
           inkscape:connector-curvature="0" /><g
           id="g109528"><g
             id="g109530" /><g
             id="g109540"><g
               clip-path="url(#clipPath109534)"
               id="g109538"><path
                 d="m 362.754,285.895 7.303,-7.304 H 323.77 c 1.161,2.647 2.828,5.13 5.001,7.304 4.688,4.705 10.846,7.041 16.991,7.041 6.16,0 12.302,-2.336 16.992,-7.041"
                 style="fill:#cccccc;fill-opacity:1;fill-rule:nonzero;stroke:none"
                 id="path109536"
                 inkscape:connector-curvature="0" /></g></g></g><g
           id="g109542"><g
             id="g109544" /><g
             id="g109554"><g
               clip-path="url(#clipPath109548)"
               id="g109552"><path
                 d="m 402.324,310.451 -25.127,-25.129 -7.516,7.516 c -2.974,2.974 -6.421,5.343 -10.163,6.993 -4.281,1.912 -8.937,2.908 -13.756,2.908 -9.036,0 -17.532,-3.513 -23.92,-9.901 -4.117,-4.117 -6.927,-9.035 -8.48,-14.247 H 150.978 l 31.859,31.86 z"
                 style="fill:#cccccc;fill-opacity:1;fill-rule:nonzero;stroke:none"
                 id="path109550"
                 inkscape:connector-curvature="0" /></g></g></g><g
           id="g109556"><g
             id="g109558" /><g
             id="g109568"><g
               clip-path="url(#clipPath109562)"
               id="g109566"><path
                 d="m 416.67,324.795 -4.902,-4.901 H 192.28 l 15.522,15.522 h 25.831 c 9.688,-7.189 21.387,-11.078 33.673,-11.078 12.286,0 23.984,3.889 33.672,11.078 h 105.073 z"
                 style="fill:#cccccc;fill-opacity:1;fill-rule:nonzero;stroke:none"
                 id="path109564"
                 inkscape:connector-curvature="0" /></g></g></g><g
           id="g109570"><g
             id="g109572" /><g
             id="g109582"><g
               clip-path="url(#clipPath109576)"
               id="g109580"><path
                 d="m 197.378,163.897 c -7.516,-7.499 -10.26,-18.003 -8.217,-27.693 l -6.192,6.192 c -0.966,8.839 1.927,18.021 8.691,24.77 5.718,5.734 13.332,8.887 21.419,8.887 6.469,0 12.629,-2.042 17.776,-5.784 -3.757,1.65 -7.842,2.516 -12.057,2.516 -8.088,0 -15.701,-3.153 -21.42,-8.888"
                 style="fill:#cccccc;fill-opacity:1;fill-rule:nonzero;stroke:none"
                 id="path109578"
                 inkscape:connector-curvature="0" /></g></g></g><g
           id="g109584"><g
             id="g109586" /><g
             id="g109596"><g
               clip-path="url(#clipPath109590)"
               id="g109594"><path
                 d="m 233.306,156.97 21.059,-21.076 -6.224,-6.225 c -0.457,-0.457 -0.916,-0.898 -1.389,-1.307 -0.392,-0.376 -0.816,-0.735 -1.225,-1.063 -0.179,-0.146 -0.36,-0.293 -0.54,-0.442 -0.865,-0.701 -1.748,-1.337 -2.663,-1.942 -0.506,-0.327 -1.029,-0.654 -1.568,-0.964 -0.376,-0.245 -0.784,-0.459 -1.176,-0.671 -0.31,-0.178 -0.621,-0.342 -0.932,-0.489 -2.533,-1.291 -5.179,-2.255 -7.908,-2.909 -0.473,-0.114 -0.964,-0.228 -1.437,-0.327 -0.098,-0.016 -0.179,-0.033 -0.261,-0.049 -0.181,-0.032 -0.344,-0.066 -0.523,-0.097 -1.013,-0.196 -2.026,-0.328 -3.039,-0.425 -1.111,-0.099 -2.222,-0.164 -3.333,-0.164 -1.699,-0.016 -3.416,0.082 -5.13,0.326 -0.621,0.083 -1.242,0.18 -1.847,0.294 -0.62,0.115 -1.225,0.246 -1.829,0.393 -0.409,0.099 -0.801,0.195 -1.21,0.311 l -7.825,7.825 c -8.006,8.007 -8.006,20.995 0,29.001 4.003,4.003 9.247,5.996 14.492,5.996 5.26,0 10.505,-1.993 14.508,-5.996"
                 style="fill:#cccccc;fill-opacity:1;fill-rule:nonzero;stroke:none"
                 id="path109592"
                 inkscape:connector-curvature="0" /></g></g></g><g
           id="g109598"><g
             id="g109600" /><g
             id="g109610"><g
               clip-path="url(#clipPath109604)"
               id="g109608"><path
                 d="m 287.385,193.878 12.482,-12.482 -33.983,-33.985 -14.572,14.574 c -9.38,9.395 -9.38,24.605 0,33.983 4.688,4.69 10.832,7.026 16.991,7.026 6.142,0 12.286,-2.336 16.992,-7.026 l 1.274,-1.275 z"
                 style="fill:#cccccc;fill-opacity:1;fill-rule:nonzero;stroke:none"
                 id="path109606"
                 inkscape:connector-curvature="0" /></g></g></g><g
           id="g109612"><g
             id="g109614" /><g
             id="g109624"><g
               clip-path="url(#clipPath109618)"
               id="g109622"><path
                 d="m 330.616,236.945 12.401,-12.4 -33.967,-33.984 -12.401,12.401 c -0.033,0.032 -0.066,0.066 -0.083,0.098 -0.277,0.277 -0.538,0.555 -0.798,0.833 -8.497,9.444 -8.204,23.985 0.881,33.052 4.689,4.689 10.833,7.025 16.975,7.025 5.769,0 11.503,-2.042 16.062,-6.159 0.293,-0.245 0.571,-0.506 0.849,-0.785 z"
                 style="fill:#cccccc;fill-opacity:1;fill-rule:nonzero;stroke:none"
                 id="path109620"
                 inkscape:connector-curvature="0" /></g></g></g><g
           id="g109626"><g
             id="g109628" /><g
             id="g109638"><g
               clip-path="url(#clipPath109632)"
               id="g109636"><path
                 d="m 315.586,253.692 c -0.654,0.033 -1.291,0.098 -1.962,0.098 -9.034,0 -17.514,-3.53 -23.902,-9.917 -9.101,-9.085 -11.91,-22.09 -8.479,-33.625 -4.052,1.684 -8.431,2.566 -12.94,2.566 -9.036,0 -17.532,-3.529 -23.921,-9.918 -7.907,-7.892 -11.059,-18.772 -9.475,-29.049 0.36,-2.369 0.98,-4.722 1.846,-6.993 -1.209,0.882 -2.466,1.683 -3.774,2.386 -0.637,0.343 -1.291,0.655 -1.96,0.948 -0.197,0.504 -0.377,1.03 -0.54,1.551 -0.865,2.647 -1.388,5.375 -1.584,8.12 -0.686,9.445 2.564,19.1 9.77,26.305 6.388,6.388 14.884,9.917 23.919,9.917 4.509,0 8.888,-0.883 12.939,-2.548 -3.43,11.517 -0.62,24.523 8.48,33.608 6.388,6.404 14.868,9.917 23.903,9.917 0.67,0 1.307,-0.066 1.96,-0.098 -3.397,6.73 -4.394,14.36 -3.006,21.631 1.226,6.421 4.297,12.547 9.264,17.514 6.389,6.389 14.885,9.902 23.919,9.902 7.074,0 13.807,-2.157 19.475,-6.176 -4.281,1.912 -8.937,2.908 -13.756,2.908 -9.036,0 -17.532,-3.513 -23.92,-9.901 -4.117,-4.117 -6.927,-9.035 -8.48,-14.247 -2.417,-8.202 -1.682,-17.154 2.224,-24.899"
                 style="fill:#cccccc;fill-opacity:1;fill-rule:nonzero;stroke:none"
                 id="path109634"
                 inkscape:connector-curvature="0" /></g></g></g><g
           id="g109640"><g
             id="g109642" /><g
             id="g109652"><g
               clip-path="url(#clipPath109646)"
               id="g109650"><path
                 d="m 383.568,265.079 -33.984,-33.968 -12.481,12.485 -0.819,0.815 -7.513,7.517 c -7.207,7.205 -8.874,17.856 -5.001,26.663 1.161,2.647 2.828,5.13 5.001,7.304 4.688,4.705 10.846,7.041 16.991,7.041 6.16,0 12.302,-2.336 16.992,-7.041 l 7.303,-7.304 h 0.407 l -0.196,-0.213 0.818,-0.816 z"
                 style="fill:#cccccc;fill-opacity:1;fill-rule:nonzero;stroke:none"
                 id="path109648"
                 inkscape:connector-curvature="0" /></g></g></g><path
           d="m 231.035,170.139 c -0.065,0.049 -0.115,0.081 -0.18,0.13 0.049,-0.033 0.115,-0.049 0.164,-0.081 0,-0.016 0.016,-0.034 0.016,-0.049"
           style="fill:#ffffff;fill-opacity:1;fill-rule:nonzero;stroke:none"
           id="path109654"
           inkscape:connector-curvature="0" /><path
           d="m 233.306,156.97 21.059,-21.076 -6.224,-6.225 c -0.457,-0.457 -0.916,-0.898 -1.389,-1.307 -0.392,-0.376 -0.816,-0.735 -1.225,-1.063 -0.179,-0.146 -0.36,-0.293 -0.54,-0.442 -0.865,-0.701 -1.748,-1.337 -2.663,-1.942 -0.506,-0.327 -1.029,-0.654 -1.568,-0.964 -0.376,-0.245 -0.784,-0.459 -1.176,-0.671 -0.31,-0.178 -0.621,-0.342 -0.932,-0.489 -2.533,-1.291 -5.179,-2.255 -7.908,-2.909 -0.473,-0.114 -0.964,-0.228 -1.437,-0.327 -0.098,-0.016 -0.179,-0.033 -0.261,-0.049 -0.181,-0.032 -0.344,-0.066 -0.523,-0.097 -1.013,-0.196 -2.026,-0.328 -3.039,-0.425 -1.111,-0.099 -2.222,-0.164 -3.333,-0.164 -1.699,-0.016 -3.416,0.082 -5.13,0.326 -0.621,0.083 -1.242,0.18 -1.847,0.294 -0.62,0.115 -1.225,0.246 -1.829,0.393 -0.409,0.099 -0.801,0.195 -1.21,0.311 l -7.825,7.825 c -8.006,8.007 -8.006,20.995 0,29.001 4.003,4.003 9.247,5.996 14.492,5.996 5.26,0 10.505,-1.993 14.508,-5.996"
           style="fill:#ffffff;fill-opacity:1;fill-rule:nonzero;stroke:none"
           id="path109656"
           inkscape:connector-curvature="0" /><path
           d="m 287.385,193.878 12.482,-12.482 -33.983,-33.985 -14.572,14.574 c -9.38,9.395 -9.38,24.605 0,33.983 4.688,4.69 10.832,7.026 16.991,7.026 6.142,0 12.286,-2.336 16.992,-7.026 l 1.274,-1.275 z"
           style="fill:#ffffff;fill-opacity:1;fill-rule:nonzero;stroke:none"
           id="path109658"
           inkscape:connector-curvature="0" /><path
           d="m 330.616,236.945 12.401,-12.4 -33.967,-33.984 -12.401,12.401 c -0.033,0.032 -0.066,0.066 -0.083,0.098 -0.277,0.277 -0.538,0.555 -0.798,0.833 -8.497,9.444 -8.204,23.985 0.881,33.052 4.689,4.689 10.833,7.025 16.975,7.025 5.769,0 11.503,-2.042 16.062,-6.159 0.293,-0.245 0.571,-0.506 0.849,-0.785 z"
           style="fill:#ffffff;fill-opacity:1;fill-rule:nonzero;stroke:none"
           id="path109660"
           inkscape:connector-curvature="0" /><path
           d="m 383.568,265.079 -33.984,-33.968 -12.481,12.485 -0.819,0.815 -7.513,7.517 c -7.207,7.205 -8.874,17.856 -5.001,26.663 1.161,2.647 2.828,5.13 5.001,7.304 4.688,4.705 10.846,7.041 16.991,7.041 6.16,0 12.302,-2.336 16.992,-7.041 l 7.303,-7.304 h 0.407 l -0.196,-0.213 0.818,-0.816 z"
           style="fill:#ffffff;fill-opacity:1;fill-rule:nonzero;stroke:none"
           id="path109662"
           inkscape:connector-curvature="0" /><path
           d="m 391.264,223.401 c -9.378,-9.378 -24.589,-9.378 -33.967,0 l -7.713,7.71 -12.481,12.485 -0.819,0.815 -7.513,7.517 c -7.207,7.205 -8.874,17.856 -5.001,26.663 1.161,2.647 2.828,5.13 5.001,7.304 4.688,4.705 10.846,7.041 16.991,7.041 6.16,0 12.302,-2.336 16.992,-7.041 l 7.303,-7.304 1.029,-1.029 12.482,-12.483 7.696,-7.695 c 9.378,-9.377 9.378,-24.59 0,-33.983"
           style="fill:#ff6868;fill-opacity:1;fill-rule:nonzero;stroke:none"
           id="path109664"
           inkscape:connector-curvature="0" /><path
           d="m 359.143,174.451 c -9.395,-9.378 -24.606,-9.378 -33.984,0 l -16.109,16.11 -12.401,12.401 c -0.033,0.032 -0.066,0.066 -0.083,0.098 -0.277,0.277 -0.538,0.555 -0.798,0.833 -8.497,9.444 -8.204,23.985 0.881,33.052 4.689,4.689 10.833,7.025 16.975,7.025 5.769,0 11.503,-2.042 16.062,-6.159 0.293,-0.245 0.571,-0.506 0.849,-0.785 l 0.081,-0.081 12.401,-12.4 16.126,-16.109 c 9.378,-9.395 9.378,-24.607 0,-33.985"
           style="fill:#ff6868;fill-opacity:1;fill-rule:nonzero;stroke:none"
           id="path109666"
           inkscape:connector-curvature="0" /><path
           d="m 313.804,133.476 c -9.378,-9.379 -24.588,-9.379 -33.984,0 l -28.508,28.509 c -9.38,9.395 -9.38,24.605 0,33.983 4.688,4.69 10.832,7.026 16.991,7.026 6.142,0 12.286,-2.336 16.992,-7.026 l 1.274,-1.275 0.816,-0.815 12.482,-12.482 13.937,-13.937 c 9.378,-9.396 9.378,-24.605 0,-33.983"
           style="fill:#ff6868;fill-opacity:1;fill-rule:nonzero;stroke:none"
           id="path109668"
           inkscape:connector-curvature="0" /><path
           d="m 257.633,103.626 c -8.004,-8.006 -20.977,-8.006 -29,0 l -16.502,16.518 -7.825,7.825 c -8.006,8.007 -8.006,20.995 0,29.001 4.003,4.003 9.247,5.996 14.492,5.996 5.26,0 10.505,-1.993 14.508,-5.996 l 21.059,-21.076 3.268,-3.269 c 8.023,-8.004 8.023,-20.978 0,-28.999"
           style="fill:#ff6868;fill-opacity:1;fill-rule:nonzero;stroke:none"
           id="path109670"
           inkscape:connector-curvature="0" /></g></g></g></svg>