<svg id="Layer_1" data-name="Layer 1" xmlns="http://www.w3.org/2000/svg" viewBox="0 0 512 512"><title>outlined-globe-wireframe-glyph</title><path d="M0,256C0,114.63,114.62,0,256,0S512,114.63,512,256,397.37,512,256,512,0,397.36,0,256ZM256,468.72c117.5,0,212.75-95.24,212.75-212.73S373.48,43.25,256,43.25,43.25,138.5,43.25,256,138.5,468.72,256,468.72Z" fill="#231f20"/><path d="M238.52,79.17a295,295,0,0,0-35.41,61.24h35.33Z" fill="#231f20"/><path d="M180.3,238.28A294.15,294.15,0,0,1,191,175.35h47.47v62.93Z" fill="#231f20"/><path d="M144.37,238.28a332.16,332.16,0,0,1,9.29-62.93H97.61a176.61,176.61,0,0,0-18.43,62.93Z" fill="#231f20"/><path d="M164.53,140.41a322.69,322.69,0,0,1,22.61-48.29,178.62,178.62,0,0,0-65.92,48.29Z" fill="#231f20"/><path d="M273.46,79.17a294.15,294.15,0,0,1,35.41,61.24H273.55Z" fill="#231f20"/><path d="M331.7,238.28A295,295,0,0,0,321,175.35H273.55v62.93Z" fill="#231f20"/><path d="M367.62,238.28a331.56,331.56,0,0,0-9.29-62.93h56a176.77,176.77,0,0,1,18.44,62.93Z" fill="#231f20"/><path d="M347.47,140.41a324.18,324.18,0,0,0-22.63-48.29,178.46,178.46,0,0,1,65.92,48.29Z" fill="#231f20"/><path d="M238.52,432.81a294.76,294.76,0,0,1-35.41-61.23h35.33Z" fill="#231f20"/><path d="M180.3,273.69a294.41,294.41,0,0,0,10.67,63h47.47v-63Z" fill="#231f20"/><path d="M144.37,273.69a332.33,332.33,0,0,0,9.29,63H97.61a176.6,176.6,0,0,1-18.43-63Z" fill="#231f20"/><path d="M164.53,371.57a322.24,322.24,0,0,0,22.61,48.29,178.62,178.62,0,0,1-65.92-48.29Z" fill="#231f20"/><path d="M273.46,432.81a293.89,293.89,0,0,0,35.41-61.23H273.55Z" fill="#231f20"/><path d="M331.7,273.69a295.22,295.22,0,0,1-10.69,63H273.55v-63Z" fill="#231f20"/><path d="M367.62,273.69a331.73,331.73,0,0,1-9.29,63h56a176.75,176.75,0,0,0,18.44-63Z" fill="#231f20"/><path d="M347.47,371.57a323.73,323.73,0,0,1-22.63,48.29,178.46,178.46,0,0,0,65.92-48.29Z" fill="#231f20"/></svg>